HIERARCHY
ROOT mixamorig:Hips
{
	OFFSET -0.000008 104.274872 1.554316
	CHANNELS 6 Xposition Yposition Zposition Xrotation Yrotation Zrotation
	JOINT mixamorig:Spine
	{
		OFFSET -0.000005 10.181587 0.131521
		CHANNELS 6 Xposition Yposition Zposition Xrotation Yrotation Zrotation
		JOINT mixamorig:Spine1
		{
			OFFSET -0.000000 9.893967 -1.470711
			CHANNELS 3 Xrotation Yrotation Zrotation
			JOINT mixamorig:Spine2
			{
				OFFSET -0.000000 9.220772 -1.370643
				CHANNELS 3 Xrotation Yrotation Zrotation
				JOINT mixamorig:Neck
				{
					OFFSET 0.000001 16.740387 -2.049035
					CHANNELS 6 Xposition Yposition Zposition Xrotation Yrotation Zrotation
					JOINT mixamorig:Head
					{
						OFFSET 0.000000 9.617889 1.685008
						CHANNELS 6 Xposition Yposition Zposition Xrotation Yrotation Zrotation
						JOINT mixamorig:HeadTop_End
						{
							OFFSET 0.000002 22.037369 7.501095
							CHANNELS 6 Xposition Yposition Zposition Xrotation Yrotation Zrotation
							End Site
							{
								OFFSET 0.000002 23.106552 -2.828258
							}
						}
					}
				}
				JOINT mixamorig:RightShoulder
				{
					OFFSET -4.569969 11.014908 -2.160884
					CHANNELS 6 Xposition Yposition Zposition Xrotation Yrotation Zrotation
					JOINT mixamorig:RightArm
					{
						OFFSET -10.592846 -0.524811 -2.232097
						CHANNELS 3 Xrotation Yrotation Zrotation
						JOINT mixamorig:RightForeArm
						{
							OFFSET -27.841518 0.000000 -0.000004
							CHANNELS 3 Xrotation Yrotation Zrotation
							JOINT mixamorig:RightHand
							{
								OFFSET -28.328838 0.000000 0.000019
								CHANNELS 3 Xrotation Yrotation Zrotation
								JOINT mixamorig:RightHandThumb1
								{
									OFFSET -2.464806 -1.573990 2.681852
									CHANNELS 6 Xposition Yposition Zposition Xrotation Yrotation Zrotation
									JOINT mixamorig:RightHandThumb2
									{
										OFFSET -3.215187 -1.872772 1.924281
										CHANNELS 3 Xrotation Yrotation Zrotation
										JOINT mixamorig:RightHandThumb3
										{
											OFFSET -2.654839 -1.527985 1.512611
											CHANNELS 3 Xrotation Yrotation Zrotation
											JOINT mixamorig:RightHandThumb4
											{
												OFFSET -2.018822 -1.152008 1.108052
												CHANNELS 3 Xrotation Yrotation Zrotation
												End Site
												{
													OFFSET -1.888100 -1.145340 1.324313
												}
											}
										}
									}
								}
								JOINT mixamorig:RightHandIndex1
								{
									OFFSET -9.108284 -0.517868 2.259834
									CHANNELS 6 Xposition Yposition Zposition Xrotation Yrotation Zrotation
									JOINT mixamorig:RightHandIndex2
									{
										OFFSET -3.699997 0.000015 0.001215
										CHANNELS 3 Xrotation Yrotation Zrotation
										JOINT mixamorig:RightHandIndex3
										{
											OFFSET -2.850006 0.000000 -0.000521
											CHANNELS 3 Xrotation Yrotation Zrotation
											JOINT mixamorig:RightHandIndex4
											{
												OFFSET -2.772186 0.000000 -0.000020
												CHANNELS 3 Xrotation Yrotation Zrotation
												End Site
												{
													OFFSET -2.772186 0.000000 -0.000502
												}
											}
										}
									}
								}
								JOINT mixamorig:RightHandMiddle1
								{
									OFFSET -9.532501 -0.000046 -0.000025
									CHANNELS 6 Xposition Yposition Zposition Xrotation Yrotation Zrotation
									JOINT mixamorig:RightHandMiddle2
									{
										OFFSET -3.699997 0.000015 0.003713
										CHANNELS 3 Xrotation Yrotation Zrotation
										JOINT mixamorig:RightHandMiddle3
										{
											OFFSET -2.949997 0.000000 -0.002054
											CHANNELS 3 Xrotation Yrotation Zrotation
											JOINT mixamorig:RightHandMiddle4
											{
												OFFSET -2.946632 0.000015 -0.000155
												CHANNELS 3 Xrotation Yrotation Zrotation
												End Site
												{
													OFFSET -2.946625 0.000000 -0.001135
												}
											}
										}
									}
								}
								JOINT mixamorig:RightHandRing1
								{
									OFFSET -9.103592 -0.043076 -1.865134
									CHANNELS 6 Xposition Yposition Zposition Xrotation Yrotation Zrotation
									JOINT mixamorig:RightHandRing2
									{
										OFFSET -3.379272 0.000000 -0.001054
										CHANNELS 3 Xrotation Yrotation Zrotation
										JOINT mixamorig:RightHandRing3
										{
											OFFSET -2.889687 0.000000 0.000379
											CHANNELS 3 Xrotation Yrotation Zrotation
											JOINT mixamorig:RightHandRing4
											{
												OFFSET -2.638817 0.000000 0.000942
												CHANNELS 3 Xrotation Yrotation Zrotation
												End Site
												{
													OFFSET -2.638802 0.000000 0.005160
												}
											}
										}
									}
								}
								JOINT mixamorig:RightHandPinky1
								{
									OFFSET -8.076675 -0.486710 -3.806279
									CHANNELS 6 Xposition Yposition Zposition Xrotation Yrotation Zrotation
									JOINT mixamorig:RightHandPinky2
									{
										OFFSET -3.599998 -0.000031 -0.003747
										CHANNELS 3 Xrotation Yrotation Zrotation
										JOINT mixamorig:RightHandPinky3
										{
											OFFSET -2.099991 -0.000015 -0.005740
											CHANNELS 3 Xrotation Yrotation Zrotation
											JOINT mixamorig:RightHandPinky4
											{
												OFFSET -2.115776 -0.000015 -0.003680
												CHANNELS 3 Xrotation Yrotation Zrotation
												End Site
												{
													OFFSET -2.115784 -0.000015 -0.003507
												}
											}
										}
									}
								}
							}
						}
					}
				}
				JOINT mixamorig:LeftShoulder
				{
					OFFSET 4.570447 11.014709 -2.160855
					CHANNELS 6 Xposition Yposition Zposition Xrotation Yrotation Zrotation
					JOINT mixamorig:LeftArm
					{
						OFFSET 10.592369 -0.524597 -2.232120
						CHANNELS 3 Xrotation Yrotation Zrotation
						JOINT mixamorig:LeftForeArm
						{
							OFFSET 27.841522 -0.000031 0.000023
							CHANNELS 3 Xrotation Yrotation Zrotation
							JOINT mixamorig:LeftHand
							{
								OFFSET 28.328835 -0.000031 0.000018
								CHANNELS 3 Xrotation Yrotation Zrotation
								JOINT mixamorig:LeftHandThumb1
								{
									OFFSET 2.466141 -1.576187 2.681734
									CHANNELS 6 Xposition Yposition Zposition Xrotation Yrotation Zrotation
									JOINT mixamorig:LeftHandThumb2
									{
										OFFSET 3.217804 -1.872055 1.916487
										CHANNELS 3 Xrotation Yrotation Zrotation
										JOINT mixamorig:LeftHandThumb3
										{
											OFFSET 2.656013 -1.528809 1.514505
											CHANNELS 3 Xrotation Yrotation Zrotation
											JOINT mixamorig:LeftHandThumb4
											{
												OFFSET 2.020889 -1.154068 1.115134
												CHANNELS 3 Xrotation Yrotation Zrotation
												End Site
												{
													OFFSET 1.908852 -1.150833 1.300489
												}
											}
										}
									}
								}
								JOINT mixamorig:LeftHandIndex1
								{
									OFFSET 9.109306 -0.518036 2.259871
									CHANNELS 6 Xposition Yposition Zposition Xrotation Yrotation Zrotation
									JOINT mixamorig:LeftHandIndex2
									{
										OFFSET 3.699997 -0.000015 -0.000323
										CHANNELS 3 Xrotation Yrotation Zrotation
										JOINT mixamorig:LeftHandIndex3
										{
											OFFSET 2.850006 -0.000015 0.000350
											CHANNELS 3 Xrotation Yrotation Zrotation
											JOINT mixamorig:LeftHandIndex4
											{
												OFFSET 2.774864 0.000000 -0.000027
												CHANNELS 3 Xrotation Yrotation Zrotation
												End Site
												{
													OFFSET 2.774872 -0.000015 -0.000099
												}
											}
										}
									}
								}
								JOINT mixamorig:LeftHandMiddle1
								{
									OFFSET 9.533401 0.000031 0.000044
									CHANNELS 6 Xposition Yposition Zposition Xrotation Yrotation Zrotation
									JOINT mixamorig:LeftHandMiddle2
									{
										OFFSET 3.699997 -0.000015 -0.000231
										CHANNELS 3 Xrotation Yrotation Zrotation
										JOINT mixamorig:LeftHandMiddle3
										{
											OFFSET 2.950005 0.000000 -0.000060
											CHANNELS 3 Xrotation Yrotation Zrotation
											JOINT mixamorig:LeftHandMiddle4
											{
												OFFSET 2.952858 0.000000 0.000063
												CHANNELS 3 Xrotation Yrotation Zrotation
												End Site
												{
													OFFSET 2.952866 0.000000 0.000228
												}
											}
										}
									}
								}
								JOINT mixamorig:LeftHandRing1
								{
									OFFSET 9.104530 -0.043030 -1.865074
									CHANNELS 6 Xposition Yposition Zposition Xrotation Yrotation Zrotation
									JOINT mixamorig:LeftHandRing2
									{
										OFFSET 3.150002 -0.000015 0.000042
										CHANNELS 3 Xrotation Yrotation Zrotation
										JOINT mixamorig:LeftHandRing3
										{
											OFFSET 2.949997 0.000000 0.000037
											CHANNELS 3 Xrotation Yrotation Zrotation
											JOINT mixamorig:LeftHandRing4
											{
												OFFSET 2.644318 -0.000015 0.000059
												CHANNELS 3 Xrotation Yrotation Zrotation
												End Site
												{
													OFFSET 2.644318 0.000000 0.000121
												}
											}
										}
									}
								}
								JOINT mixamorig:LeftHandPinky1
								{
									OFFSET 8.077782 -0.486877 -3.806256
									CHANNELS 6 Xposition Yposition Zposition Xrotation Yrotation Zrotation
									JOINT mixamorig:LeftHandPinky2
									{
										OFFSET 3.599968 0.000031 0.014726
										CHANNELS 3 Xrotation Yrotation Zrotation
										JOINT mixamorig:LeftHandPinky3
										{
											OFFSET 2.099991 0.000015 0.007705
											CHANNELS 3 Xrotation Yrotation Zrotation
											JOINT mixamorig:LeftHandPinky4
											{
												OFFSET 2.125511 0.000015 0.007514
												CHANNELS 3 Xrotation Yrotation Zrotation
												End Site
												{
													OFFSET 2.125526 0.000015 0.006258
												}
											}
										}
									}
								}
							}
						}
					}
				}
			}
		}
	}
	JOINT mixamorig:RightUpLeg
	{
		OFFSET -8.207787 -6.751671 -1.599560
		CHANNELS 6 Xposition Yposition Zposition Xrotation Yrotation Zrotation
		JOINT mixamorig:RightLeg
		{
			OFFSET -0.000001 -44.370113 0.345939
			CHANNELS 3 Xrotation Yrotation Zrotation
			JOINT mixamorig:RightFoot
			{
				OFFSET 0.000001 -44.423676 -3.043536
				CHANNELS 3 Xrotation Yrotation Zrotation
				JOINT mixamorig:RightToeBase
				{
					OFFSET -0.000003 -8.728670 10.710561
					CHANNELS 3 Xrotation Yrotation Zrotation
					JOINT mixamorig:RightToe_End
					{
						OFFSET -0.000003 -0.000677 9.278120
						CHANNELS 3 Xrotation Yrotation Zrotation
						End Site
						{
							OFFSET -0.000003 -0.000677 9.278120
						}
					}
				}
			}
		}
	}
	JOINT mixamorig:LeftUpLeg
	{
		OFFSET 8.207791 -6.751701 -1.599555
		CHANNELS 6 Xposition Yposition Zposition Xrotation Yrotation Zrotation
		JOINT mixamorig:LeftLeg
		{
			OFFSET -0.000002 -44.370033 0.346958
			CHANNELS 3 Xrotation Yrotation Zrotation
			JOINT mixamorig:LeftFoot
			{
				OFFSET 0.000000 -44.423653 -3.044392
				CHANNELS 3 Xrotation Yrotation Zrotation
				JOINT mixamorig:LeftToeBase
				{
					OFFSET -0.000003 -8.728668 10.710560
					CHANNELS 3 Xrotation Yrotation Zrotation
					JOINT mixamorig:LeftToe_End
					{
						OFFSET -0.000003 -0.000677 9.278137
						CHANNELS 3 Xrotation Yrotation Zrotation
						End Site
						{
							OFFSET -0.000003 -0.000677 9.278137
						}
					}
				}
			}
		}
	}
}
MOTION
Frames: 4
Frame Time: 0.033333
150.294220 99.284447 263.944702 -130.900972 82.458272 134.367429 -0.000010 10.181589 0.131519 11.495978 4.878250 -4.939113 1.417650 0.967441 -0.394667 1.411438 0.962096 -0.412788 -0.000006 16.740360 -2.049037 2.662901 -2.952180 -0.214654 -0.000013 9.617866 1.685010 2.461286 -2.228736 -5.121155 -0.000021 22.037369 7.501113 0.000000 0.000001 -0.000000 -4.569986 11.014926 -2.160890 0.014653 11.302806 17.940667 -22.881028 5.607339 49.220597 0.000006 28.655359 -0.000003 27.648119 1.120520 6.683111 -2.464810 -1.573966 2.681811 -4.475987 -0.610255 -7.042057 12.025258 -29.216302 -3.995123 -5.197442 -7.457730 -15.184527 0.000000 -0.000007 0.000011 -9.108273 -0.517850 2.259812 0.247382 -3.630325 16.569518 0.715665 -2.463975 32.284603 0.093027 -0.937729 11.463516 0.000002 0.000004 -0.000002 -9.532497 -0.000058 -0.000056 0.484906 -4.251957 24.283409 0.701197 -2.402493 32.313369 0.087833 -0.941124 11.169843 0.000001 0.000001 0.000004 -9.103575 -0.043075 -1.865164 0.581133 -4.445185 27.864342 0.728913 -2.521573 32.368249 0.090096 -0.905329 11.027872 -0.000001 -0.000002 0.000008 -8.076674 -0.486719 -3.806302 0.618314 -4.515318 29.352304 0.644712 -2.430926 32.454388 0.059774 -0.907794 10.483149 0.000002 0.000000 -0.000001 4.570440 11.014715 -2.160858 0.989573 3.789091 -16.052085 20.275391 -16.417301 -45.716618 0.000192 -108.876275 0.000295 -25.585349 -11.710446 -0.567874 2.466114 -1.576169 2.681730 2.634892 0.552843 10.854925 4.347695 25.812647 15.611132 -10.012277 -13.921523 9.289634 0.000003 0.000001 -0.000003 9.109308 -0.518025 2.259863 2.073759 6.783303 -45.456944 9.011941 4.931298 -122.675839 1.126967 3.449165 -36.116387 0.000000 -0.000001 0.000002 9.533426 0.000055 0.000039 -2.065579 2.712577 -45.510927 9.013972 4.928595 -122.779877 1.110312 3.434479 -35.822174 0.000000 -0.000002 0.000002 9.104537 -0.043014 -1.865084 2.937862 7.408126 -55.135626 9.022477 4.918844 -122.860200 1.101466 3.420289 -35.678644 0.000000 0.000001 0.000001 8.077787 -0.486874 -3.806266 -3.383277 3.654511 -59.434237 8.171819 5.143554 -111.338668 2.130996 4.314407 -48.525554 -0.000002 0.000003 -0.000004 -8.207783 -6.751676 -1.599561 -0.364040 -10.170575 -7.523266 33.462651 -6.287052 0.512282 -26.348578 8.443383 5.508939 -2.169626 -0.000013 0.000003 -0.000000 -0.000000 -0.000000 8.207792 -6.751711 -1.599567 -23.387690 -1.973772 -4.632653 10.199704 10.324649 6.002547 12.857380 13.816287 1.747831 -9.457894 0.000007 0.000001 -0.000001 0.000000 0.000000 
153.506989 99.227951 262.924469 -124.517668 82.768123 128.969667 -0.000054 10.181578 0.131504 11.502282 4.941694 -6.196938 1.384825 0.994818 -0.643687 1.376737 0.988702 -0.663044 -0.000016 16.740377 -2.049043 2.680123 -2.930958 -0.308970 -0.000010 9.617876 1.685038 2.786945 -2.001603 -4.919041 -0.000021 22.037354 7.501101 -0.000000 -0.000000 0.000001 -4.569976 11.014932 -2.160890 0.004900 11.299614 18.082854 -22.552363 3.218333 51.768135 0.000014 25.304731 -0.000011 29.354135 0.563925 7.256783 -2.464793 -1.573955 2.681847 -4.475984 -0.610260 -7.042059 12.025260 -29.216308 -3.995112 -5.197444 -7.457717 -15.184523 0.000005 -0.000008 0.000002 -9.108287 -0.517871 2.259829 0.247388 -3.630337 16.569523 0.715670 -2.463975 32.284603 0.093022 -0.937725 11.463518 -0.000006 -0.000000 0.000001 -9.532504 -0.000042 -0.000014 0.484912 -4.251965 24.283413 0.701198 -2.402495 32.313369 0.087840 -0.941121 11.169851 0.000000 0.000003 0.000000 -9.103597 -0.043090 -1.865111 0.581137 -4.445193 27.864348 0.728917 -2.521573 32.368253 0.090090 -0.905332 11.027865 0.000004 0.000003 0.000008 -8.076695 -0.486703 -3.806285 0.618320 -4.515327 29.352308 0.644712 -2.430924 32.454385 0.059771 -0.907789 10.483145 -0.000000 -0.000000 -0.000001 4.570440 11.014725 -2.160868 1.036039 4.137667 -16.449464 20.595081 -16.772527 -45.116685 0.000146 -109.004375 0.000228 -25.434100 -11.410329 -0.910123 2.466144 -1.576216 2.681728 2.634891 0.552847 10.854923 4.347693 25.812644 15.611135 -10.012273 -13.921520 9.289631 0.000002 0.000003 0.000002 9.109343 -0.518055 2.259856 2.073759 6.783302 -45.456944 9.011941 4.931299 -122.675853 1.126967 3.449161 -36.116387 0.000000 0.000001 0.000000 9.533442 0.000013 0.000047 -2.065582 2.712576 -45.510927 9.013972 4.928597 -122.779890 1.110313 3.434479 -35.822174 0.000001 -0.000000 0.000000 9.104557 -0.043068 -1.865079 2.937861 7.408124 -55.135626 9.022477 4.918847 -122.860200 1.101466 3.420289 -35.678654 -0.000000 0.000002 -0.000007 8.077814 -0.486889 -3.806261 -3.383278 3.654511 -59.434237 8.171819 5.143552 -111.338668 2.130995 4.314407 -48.525554 0.000001 0.000002 -0.000000 -8.207803 -6.751676 -1.599582 1.266727 -10.100916 -9.504566 33.574925 -5.615558 0.563422 -24.498864 8.865935 6.013221 -6.380867 0.000031 0.000004 -0.000000 -0.000000 -0.000000 8.207755 -6.751705 -1.599575 -22.116487 -1.712950 -5.915855 11.515391 10.352612 6.093923 15.538125 14.820273 -0.930331 -8.958662 0.000014 -0.000002 0.000000 0.000001 0.000000 
156.757584 99.330902 261.687439 -125.015507 82.410330 130.385743 0.000023 10.181584 0.131517 11.341852 4.452206 -6.924838 1.256393 0.910430 -0.905839 1.247931 0.903486 -0.924504 -0.000050 16.740393 -2.049036 2.731701 -2.882462 -0.534747 -0.000068 9.617855 1.685031 3.548627 -1.845349 -5.215665 0.000009 22.037323 7.501065 -0.000001 0.000000 0.000001 -4.569988 11.014929 -2.160858 0.022980 11.145397 17.986525 -21.915599 0.003306 54.496847 0.000005 21.536971 0.000004 31.691186 -0.621977 8.139522 -2.464795 -1.573984 2.681846 -4.475989 -0.610254 -7.042052 12.025263 -29.216295 -3.995124 -5.197439 -7.457721 -15.184521 0.000002 -0.000004 0.000000 -9.108272 -0.517848 2.259828 0.247387 -3.630329 16.569525 0.715666 -2.463972 32.284600 0.093027 -0.937728 11.463522 0.000001 0.000003 -0.000004 -9.532513 -0.000057 -0.000019 0.484913 -4.251961 24.283413 0.701191 -2.402492 32.313372 0.087835 -0.941121 11.169841 0.000002 0.000003 0.000005 -9.103590 -0.043090 -1.865144 0.581142 -4.445185 27.864346 0.728913 -2.521572 32.368256 0.090093 -0.905324 11.027873 -0.000002 0.000005 -0.000005 -8.076689 -0.486725 -3.806296 0.618320 -4.515319 29.352308 0.644717 -2.430917 32.454392 0.059777 -0.907791 10.483145 -0.000002 0.000004 -0.000009 4.570408 11.014721 -2.160845 1.072359 4.376715 -16.748565 21.085842 -16.924131 -44.743084 0.000130 -109.100094 0.000252 -25.024857 -11.101912 -1.442512 2.466118 -1.576161 2.681729 2.634890 0.552837 10.854928 4.347695 25.812641 15.611137 -10.012276 -13.921523 9.289638 -0.000002 0.000002 -0.000003 9.109312 -0.518017 2.259862 2.073758 6.783300 -45.456941 9.011942 4.931302 -122.675839 1.126967 3.449166 -36.116387 -0.000000 -0.000001 0.000001 9.533416 0.000028 0.000046 -2.065581 2.712574 -45.510923 9.013971 4.928599 -122.779877 1.110313 3.434481 -35.822177 0.000000 0.000001 -0.000001 9.104515 -0.043045 -1.865071 2.937861 7.408123 -55.135623 9.022476 4.918850 -122.860200 1.101466 3.420293 -35.678651 0.000000 0.000000 0.000003 8.077785 -0.486859 -3.806253 -3.383278 3.654509 -59.434237 8.171819 5.143558 -111.338661 2.130994 4.314409 -48.525554 0.000003 0.000001 0.000010 -8.207749 -6.751683 -1.599554 2.653148 -9.978890 -11.403622 33.946245 -5.586448 0.720898 -20.085775 8.571637 6.628540 -13.046128 0.000011 -0.000005 0.000000 0.000001 -0.000000 8.207852 -6.751710 -1.599571 -20.912767 -1.448305 -7.527961 13.267511 10.351865 6.088481 13.642003 14.874323 -1.932565 -9.068058 0.000022 -0.000001 0.000000 -0.000001 -0.000000 
159.999664 99.591431 260.223724 -128.682362 81.678824 134.560765 -0.000041 10.181602 0.131521 11.059315 3.867521 -7.009973 1.110925 0.794657 -1.109103 1.103386 0.787050 -1.126200 -0.000002 16.740387 -2.049047 2.787540 -2.830890 -0.883854 -0.000012 9.617902 1.685010 4.466437 -1.942111 -5.994851 0.000015 22.037369 7.501096 -0.000002 -0.000000 0.000000 -4.569945 11.014915 -2.160886 0.064434 10.952394 17.564733 -20.604956 -3.973984 56.930795 -0.000004 17.889664 -0.000003 34.929461 -1.977461 9.328818 -2.464804 -1.574013 2.681873 -4.475989 -0.610260 -7.042052 12.025262 -29.216298 -3.995121 -5.197445 -7.457712 -15.184518 -0.000000 -0.000010 -0.000003 -9.108268 -0.517899 2.259832 0.247384 -3.630334 16.569518 0.715667 -2.463975 32.284607 0.093028 -0.937726 11.463521 -0.000001 -0.000002 -0.000002 -9.532494 -0.000062 -0.000012 0.484908 -4.251963 24.283407 0.701192 -2.402493 32.313376 0.087838 -0.941126 11.169853 -0.000003 0.000003 -0.000002 -9.103581 -0.043124 -1.865126 0.581139 -4.445190 27.864341 0.728908 -2.521576 32.368256 0.090099 -0.905336 11.027865 -0.000000 0.000002 -0.000001 -8.076665 -0.486734 -3.806285 0.618315 -4.515326 29.352304 0.644711 -2.430928 32.454392 0.059775 -0.907800 10.483143 -0.000002 0.000004 -0.000001 4.570453 11.014709 -2.160847 1.100646 4.535013 -17.006695 21.453600 -17.208971 -44.598253 0.000139 -108.974780 0.000244 -24.570253 -10.925526 -2.234394 2.466116 -1.576217 2.681726 2.634891 0.552842 10.854931 4.347694 25.812646 15.611133 -10.012276 -13.921520 9.289629 -0.000003 -0.000002 0.000004 9.109308 -0.518036 2.259863 2.073758 6.783303 -45.456941 9.011941 4.931298 -122.675839 1.126967 3.449166 -36.116387 -0.000001 -0.000000 -0.000002 9.533412 0.000028 0.000035 -2.065582 2.712576 -45.510923 9.013971 4.928594 -122.779890 1.110312 3.434481 -35.822174 -0.000001 0.000000 0.000006 9.104538 -0.043060 -1.865080 2.937861 7.408124 -55.135626 9.022476 4.918846 -122.860200 1.101466 3.420291 -35.678647 -0.000000 0.000000 0.000001 8.077788 -0.486897 -3.806267 -3.383280 3.654510 -59.434237 8.171818 5.143556 -111.338668 2.130995 4.314412 -48.525560 -0.000000 0.000001 -0.000003 -8.207810 -6.751663 -1.599558 3.780529 -9.763941 -12.903190 34.795033 -6.172780 0.974326 -13.488574 7.762609 7.358596 -19.393228 -0.000005 -0.000001 0.000000 0.000001 -0.000000 8.207774 -6.751695 -1.599567 -19.997986 -1.310036 -8.979727 15.877019 10.308911 6.067777 10.289787 14.497980 -2.031715 -9.247562 0.000023 -0.000001 0.000001 -0.000002 -0.000000 
